<svg width="19" height="20" viewBox="0 0 19 20" fill="none" xmlns="http://www.w3.org/2000/svg">
<path d="M1 1H2.50208C3.43441 1 4.16818 1.837 4.09049 2.8L3.37398 11.764C3.25312 13.231 4.36672 14.491 5.78248 14.491H14.9762C16.2193 14.491 17.3071 13.429 17.402 12.142L17.8682 5.392C17.9718 3.898 16.8841 2.683 15.4424 2.683H4.29767" stroke="white" stroke-opacity="0.7" stroke-width="1.5" stroke-miterlimit="10" stroke-linecap="round" stroke-linejoin="round"/>
<path d="M13.3022 19C13.8982 19 14.3813 18.4963 14.3813 17.875C14.3813 17.2537 13.8982 16.75 13.3022 16.75C12.7063 16.75 12.2231 17.2537 12.2231 17.875C12.2231 18.4963 12.7063 19 13.3022 19Z" stroke="white" stroke-opacity="0.7" stroke-width="1.5" stroke-miterlimit="10" stroke-linecap="round" stroke-linejoin="round"/>
<path d="M6.39549 19C6.99145 19 7.47457 18.4963 7.47457 17.875C7.47457 17.2537 6.99145 16.75 6.39549 16.75C5.79953 16.75 5.31641 17.2537 5.31641 17.875C5.31641 18.4963 5.79953 19 6.39549 19Z" stroke="white" stroke-opacity="0.7" stroke-width="1.5" stroke-miterlimit="10" stroke-linecap="round" stroke-linejoin="round"/>
<path d="M7.04297 6.39999H17.4021" stroke="white" stroke-opacity="0.7" stroke-width="1.5" stroke-miterlimit="10" stroke-linecap="round" stroke-linejoin="round"/>
</svg>
